<mxfile host="app.diagrams.net" modified="2022-09-30T20:43:35.002Z" agent="5.0 (Windows NT 10.0; Win64; x64) AppleWebKit/537.36 (KHTML, like Gecko) Chrome/106.0.0.0 Safari/537.36" etag="OsSY2sHzF6HpdYY_1JCP" version="20.4.0" type="github">
  <diagram id="NJr7E7SvEQHaR1vQTsLx" name="Page-1">
    <mxGraphModel dx="2805" dy="2270" grid="1" gridSize="10" guides="1" tooltips="1" connect="1" arrows="1" fold="1" page="1" pageScale="1" pageWidth="850" pageHeight="1100" math="0" shadow="0">
      <root>
        <mxCell id="0" />
        <mxCell id="1" parent="0" />
        <UserObject label="Ticket" lucidchartObjectId="Fm5VCUD4C.kJ" id="rwwEqO6ymxVBcCzunAvk-1">
          <mxCell style="html=1;overflow=block;blockSpacing=1;whiteSpace=wrap;fontSize=16.7;fontColor=#333333;spacing=3.8;strokeColor=#5e5e5e;strokeOpacity=100;rounded=1;absoluteArcSize=1;arcSize=9;strokeWidth=2.3;" vertex="1" parent="1">
            <mxGeometry x="45" y="90" width="120" height="120" as="geometry" />
          </mxCell>
        </UserObject>
        <mxCell id="rwwEqO6ymxVBcCzunAvk-63" style="edgeStyle=orthogonalEdgeStyle;rounded=0;orthogonalLoop=1;jettySize=auto;html=1;exitX=1;exitY=0.75;exitDx=0;exitDy=0;entryX=0;entryY=0.5;entryDx=0;entryDy=0;" edge="1" parent="1" source="rwwEqO6ymxVBcCzunAvk-2" target="rwwEqO6ymxVBcCzunAvk-62">
          <mxGeometry relative="1" as="geometry" />
        </mxCell>
        <UserObject label="Passenger" lucidchartObjectId="0m5VhH8~N0yO" id="rwwEqO6ymxVBcCzunAvk-2">
          <mxCell style="html=1;overflow=block;blockSpacing=1;whiteSpace=wrap;fontSize=16.7;fontColor=#333333;spacing=3.8;strokeColor=#5e5e5e;strokeOpacity=100;rounded=1;absoluteArcSize=1;arcSize=9;strokeWidth=2.3;" vertex="1" parent="1">
            <mxGeometry x="860" y="90" width="120" height="120" as="geometry" />
          </mxCell>
        </UserObject>
        <UserObject label="Airline" lucidchartObjectId="nn5V1CBqbZpH" id="rwwEqO6ymxVBcCzunAvk-3">
          <mxCell style="html=1;overflow=block;blockSpacing=1;whiteSpace=wrap;fontSize=16.7;fontColor=#333333;spacing=3.8;strokeColor=#5e5e5e;strokeOpacity=100;rounded=1;absoluteArcSize=1;arcSize=9;strokeWidth=2.3;" vertex="1" parent="1">
            <mxGeometry x="120" y="810" width="120" height="120" as="geometry" />
          </mxCell>
        </UserObject>
        <UserObject label="Bookings" lucidchartObjectId="7q5VzRcH4v94" id="rwwEqO6ymxVBcCzunAvk-4">
          <mxCell style="html=1;overflow=block;blockSpacing=1;whiteSpace=wrap;fontSize=16.7;fontColor=#333333;spacing=3.8;strokeColor=#5e5e5e;strokeOpacity=100;rounded=1;absoluteArcSize=1;arcSize=9;strokeWidth=2.3;" vertex="1" parent="1">
            <mxGeometry x="1125" y="720" width="120" height="120" as="geometry" />
          </mxCell>
        </UserObject>
        <UserObject label="Schedules" lucidchartObjectId="Ow5VTkC.PQJ9" id="rwwEqO6ymxVBcCzunAvk-5">
          <mxCell style="html=1;overflow=block;blockSpacing=1;whiteSpace=wrap;fontSize=16.7;fontColor=#333333;spacing=3.8;strokeColor=#5e5e5e;strokeOpacity=100;rounded=1;absoluteArcSize=1;arcSize=9;strokeWidth=2.3;" vertex="1" parent="1">
            <mxGeometry x="240" y="310" width="120" height="120" as="geometry" />
          </mxCell>
        </UserObject>
        <UserObject label="" lucidchartObjectId="2w5VOv6-DANv" id="rwwEqO6ymxVBcCzunAvk-6">
          <mxCell style="html=1;jettySize=18;whiteSpace=wrap;fontSize=13;strokeColor=#5E5E5E;strokeWidth=1.5;rounded=1;arcSize=12;edgeStyle=orthogonalEdgeStyle;startArrow=none;endArrow=block;endFill=1;exitX=1.009;exitY=0.5;exitPerimeter=0;entryX=-0.009;entryY=0.5;entryPerimeter=0;" edge="1" parent="1" source="rwwEqO6ymxVBcCzunAvk-1" target="rwwEqO6ymxVBcCzunAvk-2">
            <mxGeometry width="100" height="100" relative="1" as="geometry">
              <Array as="points" />
            </mxGeometry>
          </mxCell>
        </UserObject>
        <UserObject label="" lucidchartObjectId="-w5V1gX_P.D4" id="rwwEqO6ymxVBcCzunAvk-7">
          <mxCell style="html=1;jettySize=18;whiteSpace=wrap;fontSize=13;strokeColor=#5E5E5E;strokeWidth=1.5;rounded=1;arcSize=12;edgeStyle=orthogonalEdgeStyle;startArrow=none;endArrow=block;endFill=1;exitX=1.009;exitY=0.5;exitPerimeter=0;entryX=-0.009;entryY=0.518;entryPerimeter=0;" edge="1" parent="1" source="rwwEqO6ymxVBcCzunAvk-3" target="rwwEqO6ymxVBcCzunAvk-5">
            <mxGeometry width="100" height="100" relative="1" as="geometry">
              <Array as="points" />
            </mxGeometry>
          </mxCell>
        </UserObject>
        <UserObject label="" lucidchartObjectId="bx5Vd0xJ5Oju" id="rwwEqO6ymxVBcCzunAvk-8">
          <mxCell style="html=1;jettySize=18;whiteSpace=wrap;fontSize=13;strokeColor=#5E5E5E;strokeWidth=1.5;rounded=1;arcSize=12;edgeStyle=orthogonalEdgeStyle;startArrow=none;endArrow=block;endFill=1;exitX=-0.009;exitY=0.5;exitPerimeter=0;entryX=1.009;entryY=0.761;entryPerimeter=0;" edge="1" parent="1" source="rwwEqO6ymxVBcCzunAvk-4" target="rwwEqO6ymxVBcCzunAvk-3">
            <mxGeometry width="100" height="100" relative="1" as="geometry">
              <Array as="points" />
            </mxGeometry>
          </mxCell>
        </UserObject>
        <UserObject label="" lucidchartObjectId="nx5V4lcjuJgG" id="rwwEqO6ymxVBcCzunAvk-9">
          <mxCell style="html=1;jettySize=18;whiteSpace=wrap;fontSize=13;strokeColor=#5E5E5E;strokeWidth=1.5;rounded=1;arcSize=12;edgeStyle=orthogonalEdgeStyle;startArrow=none;endArrow=block;endFill=1;exitX=0.5;exitY=1.009;exitPerimeter=0;entryX=-0.009;entryY=0.353;entryPerimeter=0;" edge="1" parent="1" source="rwwEqO6ymxVBcCzunAvk-1" target="rwwEqO6ymxVBcCzunAvk-5">
            <mxGeometry width="100" height="100" relative="1" as="geometry">
              <Array as="points" />
            </mxGeometry>
          </mxCell>
        </UserObject>
        <UserObject label="Source Airport" lucidchartObjectId="0G5VAMmsP6j." id="rwwEqO6ymxVBcCzunAvk-11">
          <mxCell style="html=1;overflow=block;blockSpacing=1;whiteSpace=wrap;rhombus;fontSize=16.7;fontColor=#333333;spacing=3.8;strokeColor=#5e5e5e;strokeOpacity=100;rounded=1;absoluteArcSize=1;arcSize=9;strokeWidth=2.3;" vertex="1" parent="1">
            <mxGeometry x="510" y="180" width="120" height="90" as="geometry" />
          </mxCell>
        </UserObject>
        <UserObject label="Destination Airport" lucidchartObjectId="uH5Vp8.bNOvY" id="rwwEqO6ymxVBcCzunAvk-12">
          <mxCell style="html=1;overflow=block;blockSpacing=1;whiteSpace=wrap;rhombus;fontSize=16.7;fontColor=#333333;spacing=3.8;strokeColor=#5e5e5e;strokeOpacity=100;rounded=1;absoluteArcSize=1;arcSize=9;strokeWidth=2.3;" vertex="1" parent="1">
            <mxGeometry x="510" y="285" width="120" height="90" as="geometry" />
          </mxCell>
        </UserObject>
        <UserObject label="Flight Number" lucidchartObjectId="GH5V97KyXGI6" id="rwwEqO6ymxVBcCzunAvk-13">
          <mxCell style="html=1;overflow=block;blockSpacing=1;whiteSpace=wrap;rhombus;fontSize=16.7;fontColor=#333333;spacing=3.8;strokeColor=#5e5e5e;strokeOpacity=100;rounded=1;absoluteArcSize=1;arcSize=9;strokeWidth=2.3;" vertex="1" parent="1">
            <mxGeometry x="510" y="390" width="120" height="90" as="geometry" />
          </mxCell>
        </UserObject>
        <UserObject label="Scheduled Departure" lucidchartObjectId="kI5VpfXz0Y34" id="rwwEqO6ymxVBcCzunAvk-14">
          <mxCell style="html=1;overflow=block;blockSpacing=1;whiteSpace=wrap;rhombus;fontSize=16.7;fontColor=#333333;spacing=3.8;strokeColor=#5e5e5e;strokeOpacity=100;rounded=1;absoluteArcSize=1;arcSize=9;strokeWidth=2.3;" vertex="1" parent="1">
            <mxGeometry x="510" y="495" width="120" height="90" as="geometry" />
          </mxCell>
        </UserObject>
        <UserObject label="Scheduled Arrival" lucidchartObjectId="xI5VFGIuFqcr" id="rwwEqO6ymxVBcCzunAvk-15">
          <mxCell style="html=1;overflow=block;blockSpacing=1;whiteSpace=wrap;rhombus;fontSize=16.7;fontColor=#333333;spacing=3.8;strokeColor=#5e5e5e;strokeOpacity=100;rounded=1;absoluteArcSize=1;arcSize=9;strokeWidth=2.3;" vertex="1" parent="1">
            <mxGeometry x="510" y="600" width="120" height="90" as="geometry" />
          </mxCell>
        </UserObject>
        <UserObject label="" lucidchartObjectId="LI5VxFXyH3Ur" id="rwwEqO6ymxVBcCzunAvk-16">
          <mxCell style="html=1;jettySize=18;whiteSpace=wrap;fontSize=13;strokeColor=#5E5E5E;strokeWidth=1.5;rounded=1;arcSize=12;edgeStyle=orthogonalEdgeStyle;startArrow=none;endArrow=block;endFill=1;exitX=1.009;exitY=0.043;exitPerimeter=0;entryX=0.009;entryY=0.5;entryPerimeter=0;" edge="1" parent="1" source="rwwEqO6ymxVBcCzunAvk-5" target="rwwEqO6ymxVBcCzunAvk-11">
            <mxGeometry width="100" height="100" relative="1" as="geometry">
              <Array as="points" />
            </mxGeometry>
          </mxCell>
        </UserObject>
        <UserObject label="" lucidchartObjectId="NI5Vds1T3dC4" id="rwwEqO6ymxVBcCzunAvk-17">
          <mxCell style="html=1;jettySize=18;whiteSpace=wrap;fontSize=13;strokeColor=#5E5E5E;strokeWidth=1.5;rounded=1;arcSize=12;edgeStyle=orthogonalEdgeStyle;startArrow=none;endArrow=block;endFill=1;exitX=1.009;exitY=0.167;exitPerimeter=0;entryX=0.009;entryY=0.5;entryPerimeter=0;" edge="1" parent="1" source="rwwEqO6ymxVBcCzunAvk-5" target="rwwEqO6ymxVBcCzunAvk-12">
            <mxGeometry width="100" height="100" relative="1" as="geometry">
              <Array as="points" />
            </mxGeometry>
          </mxCell>
        </UserObject>
        <UserObject label="" lucidchartObjectId="TI5VMy9LbJIM" id="rwwEqO6ymxVBcCzunAvk-18">
          <mxCell style="html=1;jettySize=18;whiteSpace=wrap;fontSize=13;strokeColor=#5E5E5E;strokeWidth=1.5;rounded=1;arcSize=12;edgeStyle=orthogonalEdgeStyle;startArrow=none;endArrow=block;endFill=1;exitX=1.009;exitY=0.399;exitPerimeter=0;entryX=0.009;entryY=0.5;entryPerimeter=0;" edge="1" parent="1" source="rwwEqO6ymxVBcCzunAvk-5" target="rwwEqO6ymxVBcCzunAvk-13">
            <mxGeometry width="100" height="100" relative="1" as="geometry">
              <Array as="points" />
            </mxGeometry>
          </mxCell>
        </UserObject>
        <UserObject label="" lucidchartObjectId="vJ5VB6rCKYNH" id="rwwEqO6ymxVBcCzunAvk-19">
          <mxCell style="html=1;jettySize=18;whiteSpace=wrap;fontSize=13;strokeColor=#5E5E5E;strokeWidth=1.5;rounded=1;arcSize=12;edgeStyle=orthogonalEdgeStyle;startArrow=none;endArrow=block;endFill=1;exitX=1.009;exitY=0.661;exitPerimeter=0;entryX=0.009;entryY=0.5;entryPerimeter=0;" edge="1" parent="1" source="rwwEqO6ymxVBcCzunAvk-5" target="rwwEqO6ymxVBcCzunAvk-14">
            <mxGeometry width="100" height="100" relative="1" as="geometry">
              <Array as="points" />
            </mxGeometry>
          </mxCell>
        </UserObject>
        <UserObject label="" lucidchartObjectId="yJ5VWNncPXeZ" id="rwwEqO6ymxVBcCzunAvk-20">
          <mxCell style="html=1;jettySize=18;whiteSpace=wrap;fontSize=13;strokeColor=#5E5E5E;strokeWidth=1.5;rounded=1;arcSize=12;edgeStyle=orthogonalEdgeStyle;startArrow=none;endArrow=block;endFill=1;exitX=1.009;exitY=0.888;exitPerimeter=0;entryX=0.009;entryY=0.5;entryPerimeter=0;" edge="1" parent="1" source="rwwEqO6ymxVBcCzunAvk-5" target="rwwEqO6ymxVBcCzunAvk-15">
            <mxGeometry width="100" height="100" relative="1" as="geometry">
              <Array as="points" />
            </mxGeometry>
          </mxCell>
        </UserObject>
        <UserObject label="Airline ID" lucidchartObjectId="hL5VdezZgwuH" id="rwwEqO6ymxVBcCzunAvk-21">
          <mxCell style="html=1;overflow=block;blockSpacing=1;whiteSpace=wrap;rhombus;fontSize=16.7;fontColor=#333333;spacing=3.8;strokeColor=#5e5e5e;strokeOpacity=100;rounded=1;absoluteArcSize=1;arcSize=9;strokeWidth=2.3;" vertex="1" parent="1">
            <mxGeometry x="-82" y="1065" width="120" height="90" as="geometry" />
          </mxCell>
        </UserObject>
        <UserObject label="Airline Name" lucidchartObjectId="rL5V3EdXXXrW" id="rwwEqO6ymxVBcCzunAvk-22">
          <mxCell style="html=1;overflow=block;blockSpacing=1;whiteSpace=wrap;rhombus;fontSize=16.7;fontColor=#333333;spacing=3.8;strokeColor=#5e5e5e;strokeOpacity=100;rounded=1;absoluteArcSize=1;arcSize=9;strokeWidth=2.3;" vertex="1" parent="1">
            <mxGeometry x="53" y="1065" width="120" height="90" as="geometry" />
          </mxCell>
        </UserObject>
        <UserObject label="Airline Home" lucidchartObjectId="vL5Veuiz3L.t" id="rwwEqO6ymxVBcCzunAvk-23">
          <mxCell style="html=1;overflow=block;blockSpacing=1;whiteSpace=wrap;rhombus;fontSize=16.7;fontColor=#333333;spacing=3.8;strokeColor=#5e5e5e;strokeOpacity=100;rounded=1;absoluteArcSize=1;arcSize=9;strokeWidth=2.3;" vertex="1" parent="1">
            <mxGeometry x="188" y="1065" width="120" height="90" as="geometry" />
          </mxCell>
        </UserObject>
        <UserObject label="Fleet size" lucidchartObjectId="zL5Vg_APFInP" id="rwwEqO6ymxVBcCzunAvk-24">
          <mxCell style="html=1;overflow=block;blockSpacing=1;whiteSpace=wrap;rhombus;fontSize=16.7;fontColor=#333333;spacing=3.8;strokeColor=#5e5e5e;strokeOpacity=100;rounded=1;absoluteArcSize=1;arcSize=9;strokeWidth=2.3;" vertex="1" parent="1">
            <mxGeometry x="323" y="1065" width="120" height="90" as="geometry" />
          </mxCell>
        </UserObject>
        <UserObject label="" lucidchartObjectId="QN5VmSA0xLcr" id="rwwEqO6ymxVBcCzunAvk-25">
          <mxCell style="html=1;jettySize=18;whiteSpace=wrap;fontSize=13;strokeColor=#5E5E5E;strokeWidth=1.5;rounded=1;arcSize=12;edgeStyle=orthogonalEdgeStyle;startArrow=none;endArrow=block;endFill=1;exitX=0.192;exitY=1.009;exitPerimeter=0;entryX=0.5;entryY=0.004;entryPerimeter=0;" edge="1" parent="1" source="rwwEqO6ymxVBcCzunAvk-3" target="rwwEqO6ymxVBcCzunAvk-21">
            <mxGeometry width="100" height="100" relative="1" as="geometry">
              <Array as="points" />
            </mxGeometry>
          </mxCell>
        </UserObject>
        <UserObject label="" lucidchartObjectId="ZN5V3.YG2r5." id="rwwEqO6ymxVBcCzunAvk-26">
          <mxCell style="html=1;jettySize=18;whiteSpace=wrap;fontSize=13;strokeColor=#5E5E5E;strokeWidth=1.5;rounded=1;arcSize=12;edgeStyle=orthogonalEdgeStyle;startArrow=none;endArrow=block;endFill=1;exitX=0.324;exitY=1.009;exitPerimeter=0;entryX=0.5;entryY=0.004;entryPerimeter=0;" edge="1" parent="1" source="rwwEqO6ymxVBcCzunAvk-3" target="rwwEqO6ymxVBcCzunAvk-22">
            <mxGeometry width="100" height="100" relative="1" as="geometry">
              <Array as="points" />
            </mxGeometry>
          </mxCell>
        </UserObject>
        <UserObject label="" lucidchartObjectId="2N5VEU3Fv.yW" id="rwwEqO6ymxVBcCzunAvk-27">
          <mxCell style="html=1;jettySize=18;whiteSpace=wrap;fontSize=13;strokeColor=#5E5E5E;strokeWidth=1.5;rounded=1;arcSize=12;edgeStyle=orthogonalEdgeStyle;startArrow=none;endArrow=block;endFill=1;exitX=0.5;exitY=1.009;exitPerimeter=0;entryX=0.5;entryY=0.004;entryPerimeter=0;" edge="1" parent="1" source="rwwEqO6ymxVBcCzunAvk-3" target="rwwEqO6ymxVBcCzunAvk-23">
            <mxGeometry width="100" height="100" relative="1" as="geometry">
              <Array as="points" />
            </mxGeometry>
          </mxCell>
        </UserObject>
        <UserObject label="" lucidchartObjectId="6N5VvMVMm4cU" id="rwwEqO6ymxVBcCzunAvk-28">
          <mxCell style="html=1;jettySize=18;whiteSpace=wrap;fontSize=13;strokeColor=#5E5E5E;strokeWidth=1.5;rounded=1;arcSize=12;edgeStyle=orthogonalEdgeStyle;startArrow=none;endArrow=block;endFill=1;exitX=0.612;exitY=1.009;exitPerimeter=0;entryX=0.5;entryY=0.004;entryPerimeter=0;" edge="1" parent="1" source="rwwEqO6ymxVBcCzunAvk-3" target="rwwEqO6ymxVBcCzunAvk-24">
            <mxGeometry width="100" height="100" relative="1" as="geometry">
              <Array as="points" />
            </mxGeometry>
          </mxCell>
        </UserObject>
        <UserObject label="Ticket ID" lucidchartObjectId="IR5V7azKxIJO" id="rwwEqO6ymxVBcCzunAvk-29">
          <mxCell style="html=1;overflow=block;blockSpacing=1;whiteSpace=wrap;rhombus;fontSize=16.7;fontColor=#333333;spacing=3.8;strokeColor=#5e5e5e;strokeOpacity=100;rounded=1;absoluteArcSize=1;arcSize=9;strokeWidth=2.3;" vertex="1" parent="1">
            <mxGeometry x="-202" y="15" width="120" height="90" as="geometry" />
          </mxCell>
        </UserObject>
        <UserObject label="Booking&#xa;Date and Time" lucidchartObjectId="OR5VnzNYM8q8" id="rwwEqO6ymxVBcCzunAvk-30">
          <mxCell style="html=1;overflow=block;blockSpacing=1;whiteSpace=wrap;rhombus;fontSize=16.7;fontColor=#333333;spacing=3.8;strokeColor=#5e5e5e;strokeOpacity=100;rounded=1;absoluteArcSize=1;arcSize=9;strokeWidth=2.3;" vertex="1" parent="1">
            <mxGeometry x="-212" y="113" width="140" height="105" as="geometry" />
          </mxCell>
        </UserObject>
        <UserObject label="Passenger Name" lucidchartObjectId="SR5VWvs5Lo2G" id="rwwEqO6ymxVBcCzunAvk-31">
          <mxCell style="html=1;overflow=block;blockSpacing=1;whiteSpace=wrap;rhombus;fontSize=16.7;fontColor=#333333;spacing=3.8;strokeColor=#5e5e5e;strokeOpacity=100;rounded=1;absoluteArcSize=1;arcSize=9;strokeWidth=2.3;" vertex="1" parent="1">
            <mxGeometry x="-202" y="225" width="120" height="90" as="geometry" />
          </mxCell>
        </UserObject>
        <UserObject label="Departure Airport" lucidchartObjectId="SR5VGSA2Hnaw" id="rwwEqO6ymxVBcCzunAvk-32">
          <mxCell style="html=1;overflow=block;blockSpacing=1;whiteSpace=wrap;rhombus;fontSize=16.7;fontColor=#333333;spacing=3.8;strokeColor=#5e5e5e;strokeOpacity=100;rounded=1;absoluteArcSize=1;arcSize=9;strokeWidth=2.3;" vertex="1" parent="1">
            <mxGeometry x="-202" y="330" width="120" height="90" as="geometry" />
          </mxCell>
        </UserObject>
        <UserObject label="Arrival Airport" lucidchartObjectId="ZR5V9vHlwbau" id="rwwEqO6ymxVBcCzunAvk-33">
          <mxCell style="html=1;overflow=block;blockSpacing=1;whiteSpace=wrap;rhombus;fontSize=16.7;fontColor=#333333;spacing=3.8;strokeColor=#5e5e5e;strokeOpacity=100;rounded=1;absoluteArcSize=1;arcSize=9;strokeWidth=2.3;" vertex="1" parent="1">
            <mxGeometry x="-210" y="435" width="120" height="90" as="geometry" />
          </mxCell>
        </UserObject>
        <UserObject label="Baggage Allowance" lucidchartObjectId="ZR5VtX6q.qOH" id="rwwEqO6ymxVBcCzunAvk-34">
          <mxCell style="html=1;overflow=block;blockSpacing=1;whiteSpace=wrap;rhombus;fontSize=16.7;fontColor=#333333;spacing=3.8;strokeColor=#5e5e5e;strokeOpacity=100;rounded=1;absoluteArcSize=1;arcSize=9;strokeWidth=2.3;" vertex="1" parent="1">
            <mxGeometry x="-210" y="540" width="120" height="90" as="geometry" />
          </mxCell>
        </UserObject>
        <UserObject label="Ticket Fare" lucidchartObjectId="4S5VwBM.3yt_" id="rwwEqO6ymxVBcCzunAvk-35">
          <mxCell style="html=1;overflow=block;blockSpacing=1;whiteSpace=wrap;rhombus;fontSize=16.7;fontColor=#333333;spacing=3.8;strokeColor=#5e5e5e;strokeOpacity=100;rounded=1;absoluteArcSize=1;arcSize=9;strokeWidth=2.3;" vertex="1" parent="1">
            <mxGeometry x="-210" y="645" width="120" height="90" as="geometry" />
          </mxCell>
        </UserObject>
        <UserObject label="Flight Number" lucidchartObjectId="4S5VpWgV7goC" id="rwwEqO6ymxVBcCzunAvk-36">
          <mxCell style="html=1;overflow=block;blockSpacing=1;whiteSpace=wrap;rhombus;fontSize=16.7;fontColor=#333333;spacing=3.8;strokeColor=#5e5e5e;strokeOpacity=100;rounded=1;absoluteArcSize=1;arcSize=9;strokeWidth=2.3;" vertex="1" parent="1">
            <mxGeometry x="-210" y="750" width="120" height="90" as="geometry" />
          </mxCell>
        </UserObject>
        <UserObject label="Airlines" lucidchartObjectId=".T5Vqf5Sisih" id="rwwEqO6ymxVBcCzunAvk-37">
          <mxCell style="html=1;overflow=block;blockSpacing=1;whiteSpace=wrap;rhombus;fontSize=16.7;fontColor=#333333;spacing=3.8;strokeColor=#5e5e5e;strokeOpacity=100;rounded=1;absoluteArcSize=1;arcSize=9;strokeWidth=2.3;" vertex="1" parent="1">
            <mxGeometry x="-210" y="855" width="120" height="90" as="geometry" />
          </mxCell>
        </UserObject>
        <UserObject label="" lucidchartObjectId="iV5VwtTc.krD" id="rwwEqO6ymxVBcCzunAvk-38">
          <mxCell style="html=1;jettySize=18;whiteSpace=wrap;fontSize=13;strokeColor=#5E5E5E;strokeWidth=1.5;rounded=1;arcSize=12;edgeStyle=orthogonalEdgeStyle;startArrow=none;endArrow=block;endFill=1;exitX=-0.009;exitY=0.075;exitPerimeter=0;entryX=0.991;entryY=0.5;entryPerimeter=0;" edge="1" parent="1" source="rwwEqO6ymxVBcCzunAvk-1" target="rwwEqO6ymxVBcCzunAvk-29">
            <mxGeometry width="100" height="100" relative="1" as="geometry">
              <Array as="points" />
            </mxGeometry>
          </mxCell>
        </UserObject>
        <UserObject label="" lucidchartObjectId="lV5V4tSw5rNJ" id="rwwEqO6ymxVBcCzunAvk-39">
          <mxCell style="html=1;jettySize=18;whiteSpace=wrap;fontSize=13;strokeColor=#5E5E5E;strokeWidth=1.5;rounded=1;arcSize=12;edgeStyle=orthogonalEdgeStyle;startArrow=none;endArrow=block;endFill=1;exitX=-0.009;exitY=0.192;exitPerimeter=0;entryX=0.992;entryY=0.5;entryPerimeter=0;" edge="1" parent="1" source="rwwEqO6ymxVBcCzunAvk-1" target="rwwEqO6ymxVBcCzunAvk-30">
            <mxGeometry width="100" height="100" relative="1" as="geometry">
              <Array as="points" />
            </mxGeometry>
          </mxCell>
        </UserObject>
        <UserObject label="" lucidchartObjectId="nV5VGVpIUTg6" id="rwwEqO6ymxVBcCzunAvk-40">
          <mxCell style="html=1;jettySize=18;whiteSpace=wrap;fontSize=13;strokeColor=#5E5E5E;strokeWidth=1.5;rounded=1;arcSize=12;edgeStyle=orthogonalEdgeStyle;startArrow=none;endArrow=block;endFill=1;exitX=-0.009;exitY=0.315;exitPerimeter=0;entryX=0.99;entryY=0.503;entryPerimeter=0;" edge="1" parent="1" source="rwwEqO6ymxVBcCzunAvk-1" target="rwwEqO6ymxVBcCzunAvk-31">
            <mxGeometry width="100" height="100" relative="1" as="geometry">
              <Array as="points" />
            </mxGeometry>
          </mxCell>
        </UserObject>
        <UserObject label="" lucidchartObjectId="sV5V79JOKqjw" id="rwwEqO6ymxVBcCzunAvk-41">
          <mxCell style="html=1;jettySize=18;whiteSpace=wrap;fontSize=13;strokeColor=#5E5E5E;strokeWidth=1.5;rounded=1;arcSize=12;edgeStyle=orthogonalEdgeStyle;startArrow=none;endArrow=block;endFill=1;exitX=-0.009;exitY=0.416;exitPerimeter=0;entryX=0.991;entryY=0.5;entryPerimeter=0;" edge="1" parent="1" source="rwwEqO6ymxVBcCzunAvk-1" target="rwwEqO6ymxVBcCzunAvk-32">
            <mxGeometry width="100" height="100" relative="1" as="geometry">
              <Array as="points" />
            </mxGeometry>
          </mxCell>
        </UserObject>
        <UserObject label="" lucidchartObjectId="CV5VsphEW.C8" id="rwwEqO6ymxVBcCzunAvk-42">
          <mxCell style="html=1;jettySize=18;whiteSpace=wrap;fontSize=13;strokeColor=#5E5E5E;strokeWidth=1.5;rounded=1;arcSize=12;edgeStyle=orthogonalEdgeStyle;startArrow=none;endArrow=block;endFill=1;exitX=-0.009;exitY=0.5;exitPerimeter=0;entryX=0.991;entryY=0.5;entryPerimeter=0;" edge="1" parent="1" source="rwwEqO6ymxVBcCzunAvk-1" target="rwwEqO6ymxVBcCzunAvk-33">
            <mxGeometry width="100" height="100" relative="1" as="geometry">
              <Array as="points" />
            </mxGeometry>
          </mxCell>
        </UserObject>
        <UserObject label="" lucidchartObjectId="HV5Vu4QPPJsA" id="rwwEqO6ymxVBcCzunAvk-43">
          <mxCell style="html=1;jettySize=18;whiteSpace=wrap;fontSize=13;strokeColor=#5E5E5E;strokeWidth=1.5;rounded=1;arcSize=12;edgeStyle=orthogonalEdgeStyle;startArrow=none;endArrow=block;endFill=1;exitX=-0.009;exitY=0.558;exitPerimeter=0;entryX=0.991;entryY=0.5;entryPerimeter=0;" edge="1" parent="1" source="rwwEqO6ymxVBcCzunAvk-1" target="rwwEqO6ymxVBcCzunAvk-34">
            <mxGeometry width="100" height="100" relative="1" as="geometry">
              <Array as="points" />
            </mxGeometry>
          </mxCell>
        </UserObject>
        <UserObject label="" lucidchartObjectId="WV5V79~mfW_1" id="rwwEqO6ymxVBcCzunAvk-44">
          <mxCell style="html=1;jettySize=18;whiteSpace=wrap;fontSize=13;strokeColor=#5E5E5E;strokeWidth=1.5;rounded=1;arcSize=12;edgeStyle=orthogonalEdgeStyle;startArrow=none;endArrow=block;endFill=1;exitX=-0.009;exitY=0.714;exitPerimeter=0;entryX=0.991;entryY=0.5;entryPerimeter=0;" edge="1" parent="1" source="rwwEqO6ymxVBcCzunAvk-1" target="rwwEqO6ymxVBcCzunAvk-35">
            <mxGeometry width="100" height="100" relative="1" as="geometry">
              <Array as="points" />
            </mxGeometry>
          </mxCell>
        </UserObject>
        <UserObject label="" lucidchartObjectId="1V5VHJSzTGmY" id="rwwEqO6ymxVBcCzunAvk-45">
          <mxCell style="html=1;jettySize=18;whiteSpace=wrap;fontSize=13;strokeColor=#5E5E5E;strokeWidth=1.5;rounded=1;arcSize=12;edgeStyle=orthogonalEdgeStyle;startArrow=none;endArrow=block;endFill=1;exitX=-0.009;exitY=0.807;exitPerimeter=0;entryX=0.991;entryY=0.5;entryPerimeter=0;" edge="1" parent="1" source="rwwEqO6ymxVBcCzunAvk-1" target="rwwEqO6ymxVBcCzunAvk-36">
            <mxGeometry width="100" height="100" relative="1" as="geometry">
              <Array as="points" />
            </mxGeometry>
          </mxCell>
        </UserObject>
        <UserObject label="" lucidchartObjectId="BW5VHDEWtV0w" id="rwwEqO6ymxVBcCzunAvk-46">
          <mxCell style="html=1;jettySize=18;whiteSpace=wrap;fontSize=13;strokeColor=#5E5E5E;strokeWidth=1.5;rounded=1;arcSize=12;edgeStyle=orthogonalEdgeStyle;startArrow=none;endArrow=block;endFill=1;exitX=-0.009;exitY=0.95;exitPerimeter=0;entryX=0.991;entryY=0.5;entryPerimeter=0;" edge="1" parent="1" source="rwwEqO6ymxVBcCzunAvk-1" target="rwwEqO6ymxVBcCzunAvk-37">
            <mxGeometry width="100" height="100" relative="1" as="geometry">
              <Array as="points" />
            </mxGeometry>
          </mxCell>
        </UserObject>
        <UserObject label="Booking ID" lucidchartObjectId="W.5V1lvYkzp3" id="rwwEqO6ymxVBcCzunAvk-47">
          <mxCell style="html=1;overflow=block;blockSpacing=1;whiteSpace=wrap;rhombus;fontSize=16.7;fontColor=#333333;spacing=3.8;strokeColor=#5e5e5e;strokeOpacity=100;rounded=1;absoluteArcSize=1;arcSize=9;strokeWidth=2.3;" vertex="1" parent="1">
            <mxGeometry x="915" y="510" width="120" height="90" as="geometry" />
          </mxCell>
        </UserObject>
        <UserObject label="Booking Time" lucidchartObjectId="6.5VOEGicj_k" id="rwwEqO6ymxVBcCzunAvk-48">
          <mxCell style="html=1;overflow=block;blockSpacing=1;whiteSpace=wrap;rhombus;fontSize=16.7;fontColor=#333333;spacing=3.8;strokeColor=#5e5e5e;strokeOpacity=100;rounded=1;absoluteArcSize=1;arcSize=9;strokeWidth=2.3;" vertex="1" parent="1">
            <mxGeometry x="1050" y="510" width="120" height="90" as="geometry" />
          </mxCell>
        </UserObject>
        <UserObject label="Booking&#xa;Agent " lucidchartObjectId="9.5VeFBdmi.V" id="rwwEqO6ymxVBcCzunAvk-49">
          <mxCell style="html=1;overflow=block;blockSpacing=1;whiteSpace=wrap;rhombus;fontSize=16.7;fontColor=#333333;spacing=3.8;strokeColor=#5e5e5e;strokeOpacity=100;rounded=1;absoluteArcSize=1;arcSize=9;strokeWidth=2.3;" vertex="1" parent="1">
            <mxGeometry x="1185" y="510" width="120" height="90" as="geometry" />
          </mxCell>
        </UserObject>
        <UserObject label="Booking&#xa;Type" lucidchartObjectId="9.5VK8zTb8N-" id="rwwEqO6ymxVBcCzunAvk-50">
          <mxCell style="html=1;overflow=block;blockSpacing=1;whiteSpace=wrap;rhombus;fontSize=16.7;fontColor=#333333;spacing=3.8;strokeColor=#5e5e5e;strokeOpacity=100;rounded=1;absoluteArcSize=1;arcSize=9;strokeWidth=2.3;" vertex="1" parent="1">
            <mxGeometry x="1320" y="510" width="120" height="90" as="geometry" />
          </mxCell>
        </UserObject>
        <UserObject label="" lucidchartObjectId="g~5VNRBddXcp" id="rwwEqO6ymxVBcCzunAvk-51">
          <mxCell style="html=1;jettySize=18;whiteSpace=wrap;fontSize=13;strokeColor=#5E5E5E;strokeWidth=1.5;rounded=1;arcSize=12;edgeStyle=orthogonalEdgeStyle;startArrow=none;endArrow=block;endFill=1;exitX=0.174;exitY=-0.009;exitPerimeter=0;entryX=0.5;entryY=0.996;entryPerimeter=0;" edge="1" parent="1" source="rwwEqO6ymxVBcCzunAvk-4" target="rwwEqO6ymxVBcCzunAvk-47">
            <mxGeometry width="100" height="100" relative="1" as="geometry">
              <Array as="points" />
            </mxGeometry>
          </mxCell>
        </UserObject>
        <UserObject label="" lucidchartObjectId="w~5V59wADXyr" id="rwwEqO6ymxVBcCzunAvk-52">
          <mxCell style="html=1;jettySize=18;whiteSpace=wrap;fontSize=13;strokeColor=#5E5E5E;strokeWidth=1.5;rounded=1;arcSize=12;edgeStyle=orthogonalEdgeStyle;startArrow=none;endArrow=block;endFill=1;exitX=0.174;exitY=-0.009;exitPerimeter=0;entryX=0.5;entryY=0.996;entryPerimeter=0;" edge="1" parent="1" source="rwwEqO6ymxVBcCzunAvk-4" target="rwwEqO6ymxVBcCzunAvk-48">
            <mxGeometry width="100" height="100" relative="1" as="geometry">
              <Array as="points" />
            </mxGeometry>
          </mxCell>
        </UserObject>
        <UserObject label="" lucidchartObjectId="B~5VCqN3sCsA" id="rwwEqO6ymxVBcCzunAvk-53">
          <mxCell style="html=1;jettySize=18;whiteSpace=wrap;fontSize=13;strokeColor=#5E5E5E;strokeWidth=1.5;rounded=1;arcSize=12;edgeStyle=orthogonalEdgeStyle;startArrow=none;endArrow=block;endFill=1;exitX=0.73;exitY=-0.009;exitPerimeter=0;entryX=0.5;entryY=0.996;entryPerimeter=0;" edge="1" parent="1" source="rwwEqO6ymxVBcCzunAvk-4" target="rwwEqO6ymxVBcCzunAvk-49">
            <mxGeometry width="100" height="100" relative="1" as="geometry">
              <Array as="points" />
            </mxGeometry>
          </mxCell>
        </UserObject>
        <UserObject label="" lucidchartObjectId="Q~5VkCsWiVje" id="rwwEqO6ymxVBcCzunAvk-54">
          <mxCell style="html=1;jettySize=18;whiteSpace=wrap;fontSize=13;strokeColor=#5E5E5E;strokeWidth=1.5;rounded=1;arcSize=12;edgeStyle=orthogonalEdgeStyle;startArrow=none;endArrow=block;endFill=1;exitX=0.73;exitY=-0.009;exitPerimeter=0;entryX=0.5;entryY=0.996;entryPerimeter=0;" edge="1" parent="1" source="rwwEqO6ymxVBcCzunAvk-4" target="rwwEqO6ymxVBcCzunAvk-50">
            <mxGeometry width="100" height="100" relative="1" as="geometry">
              <Array as="points" />
            </mxGeometry>
          </mxCell>
        </UserObject>
        <UserObject label="Passeger ID" lucidchartObjectId="5b6VxWSgr343" id="rwwEqO6ymxVBcCzunAvk-55">
          <mxCell style="html=1;overflow=block;blockSpacing=1;whiteSpace=wrap;rhombus;fontSize=16.7;fontColor=#333333;spacing=3.8;strokeColor=#5e5e5e;strokeOpacity=100;rounded=1;absoluteArcSize=1;arcSize=9;strokeWidth=2.3;" vertex="1" parent="1">
            <mxGeometry x="1080" y="-75" width="120" height="90" as="geometry" />
          </mxCell>
        </UserObject>
        <UserObject label="" lucidchartObjectId="9b6V6bag2zkw" id="rwwEqO6ymxVBcCzunAvk-56">
          <mxCell style="html=1;jettySize=18;whiteSpace=wrap;fontSize=13;strokeColor=#5E5E5E;strokeWidth=1.5;rounded=1;arcSize=12;edgeStyle=orthogonalEdgeStyle;startArrow=none;endArrow=block;endFill=1;exitX=1.009;exitY=0.103;exitPerimeter=0;entryX=0.009;entryY=0.5;entryPerimeter=0;" edge="1" parent="1" source="rwwEqO6ymxVBcCzunAvk-2" target="rwwEqO6ymxVBcCzunAvk-55">
            <mxGeometry width="100" height="100" relative="1" as="geometry">
              <Array as="points" />
            </mxGeometry>
          </mxCell>
        </UserObject>
        <UserObject label="Passeger Name" lucidchartObjectId="gc6VSx1S~M1R" id="rwwEqO6ymxVBcCzunAvk-57">
          <mxCell style="html=1;overflow=block;blockSpacing=1;whiteSpace=wrap;rhombus;fontSize=16.7;fontColor=#333333;spacing=3.8;strokeColor=#5e5e5e;strokeOpacity=100;rounded=1;absoluteArcSize=1;arcSize=9;strokeWidth=2.3;" vertex="1" parent="1">
            <mxGeometry x="1080" y="30" width="120" height="90" as="geometry" />
          </mxCell>
        </UserObject>
        <UserObject label="" lucidchartObjectId="Dc6VOCK4FM~n" id="rwwEqO6ymxVBcCzunAvk-58">
          <mxCell style="html=1;jettySize=18;whiteSpace=wrap;fontSize=13;strokeColor=#5E5E5E;strokeWidth=1.5;rounded=1;arcSize=12;edgeStyle=orthogonalEdgeStyle;startArrow=none;endArrow=block;endFill=1;exitX=1.009;exitY=0.29;exitPerimeter=0;entryX=0.009;entryY=0.5;entryPerimeter=0;" edge="1" parent="1" source="rwwEqO6ymxVBcCzunAvk-2" target="rwwEqO6ymxVBcCzunAvk-57">
            <mxGeometry width="100" height="100" relative="1" as="geometry">
              <Array as="points" />
            </mxGeometry>
          </mxCell>
        </UserObject>
        <UserObject label="email" lucidchartObjectId="Kc6V6YDcWs4u" id="rwwEqO6ymxVBcCzunAvk-59">
          <mxCell style="html=1;overflow=block;blockSpacing=1;whiteSpace=wrap;rhombus;fontSize=16.7;fontColor=#333333;spacing=3.8;strokeColor=#5e5e5e;strokeOpacity=100;rounded=1;absoluteArcSize=1;arcSize=9;strokeWidth=2.3;" vertex="1" parent="1">
            <mxGeometry x="1080" y="135" width="120" height="90" as="geometry" />
          </mxCell>
        </UserObject>
        <UserObject label="" lucidchartObjectId="Oc6VicJqti.T" id="rwwEqO6ymxVBcCzunAvk-60">
          <mxCell style="html=1;jettySize=18;whiteSpace=wrap;fontSize=13;strokeColor=#5E5E5E;strokeWidth=1.5;rounded=1;arcSize=12;edgeStyle=orthogonalEdgeStyle;startArrow=none;endArrow=block;endFill=1;exitX=1.009;exitY=0.5;exitPerimeter=0;entryX=0.009;entryY=0.5;entryPerimeter=0;" edge="1" parent="1" source="rwwEqO6ymxVBcCzunAvk-2" target="rwwEqO6ymxVBcCzunAvk-59">
            <mxGeometry width="100" height="100" relative="1" as="geometry">
              <Array as="points" />
            </mxGeometry>
          </mxCell>
        </UserObject>
        <UserObject label="Passport Number" lucidchartObjectId="Kc6V6YDcWs4u" id="rwwEqO6ymxVBcCzunAvk-62">
          <mxCell style="html=1;overflow=block;blockSpacing=1;whiteSpace=wrap;rhombus;fontSize=16.7;fontColor=#333333;spacing=3.8;strokeColor=#5e5e5e;strokeOpacity=100;rounded=1;absoluteArcSize=1;arcSize=9;strokeWidth=2.3;" vertex="1" parent="1">
            <mxGeometry x="1080" y="240" width="120" height="90" as="geometry" />
          </mxCell>
        </UserObject>
        <UserObject label="Password" lucidchartObjectId="Kc6V6YDcWs4u" id="rwwEqO6ymxVBcCzunAvk-64">
          <mxCell style="html=1;overflow=block;blockSpacing=1;whiteSpace=wrap;rhombus;fontSize=16.7;fontColor=#333333;spacing=3.8;strokeColor=#5e5e5e;strokeOpacity=100;rounded=1;absoluteArcSize=1;arcSize=9;strokeWidth=2.3;" vertex="1" parent="1">
            <mxGeometry x="1080" y="340" width="120" height="90" as="geometry" />
          </mxCell>
        </UserObject>
        <mxCell id="rwwEqO6ymxVBcCzunAvk-67" value="" style="endArrow=classic;html=1;rounded=0;entryX=0;entryY=0.5;entryDx=0;entryDy=0;exitX=0.997;exitY=0.954;exitDx=0;exitDy=0;exitPerimeter=0;" edge="1" parent="1" source="rwwEqO6ymxVBcCzunAvk-2" target="rwwEqO6ymxVBcCzunAvk-64">
          <mxGeometry width="50" height="50" relative="1" as="geometry">
            <mxPoint x="800" y="330" as="sourcePoint" />
            <mxPoint x="850" y="280" as="targetPoint" />
          </mxGeometry>
        </mxCell>
      </root>
    </mxGraphModel>
  </diagram>
</mxfile>
